HIERARCHY
ROOT SpineBase
{
  OFFSET 0.000000 0.000000 0.000000
  CHANNELS 6 Xposition Yposition Zposition Zrotation Xrotation Yrotation
  JOINT SpineMid
  {
    OFFSET 0.000000 30.020336 0.000000
    CHANNELS 3 Zrotation Xrotation Yrotation
    JOINT SpineShoulder
    {
      OFFSET -0.184450 22.467196 -0.769528
      CHANNELS 3 Zrotation Xrotation Yrotation
      JOINT Neck
      {
        OFFSET -0.144868 7.499277 -0.571766
        CHANNELS 3 Zrotation Xrotation Yrotation
        JOINT Head
        {
          OFFSET -3.150554 14.397018 -0.673307
          CHANNELS 3 Zrotation Xrotation Yrotation
          End Site
          {
            OFFSET 0 0 0
          }
        }
      }
      JOINT ShoulderLeft
      {
        OFFSET -15.933523 -3.079261 7.601954
        CHANNELS 3 Zrotation Xrotation Yrotation
        JOINT ElbowLeft
        {
          OFFSET -2.495706 -24.907567 0.916106
          CHANNELS 3 Zrotation Xrotation Yrotation
          JOINT WristLeft
          {
            OFFSET 0.771939 -22.262832 -13.621369
            CHANNELS 3 Zrotation Xrotation Yrotation
            JOINT HandLeft
            {
              OFFSET 0.344476 -7.101808 -2.920840
              CHANNELS 3 Zrotation Xrotation Yrotation
              JOINT HandTipLeft
              {
                OFFSET -0.970567 -5.970770 -4.630197
                CHANNELS 3 Zrotation Xrotation Yrotation
                End Site
                {
                  OFFSET 0 0 0
                }
              }
              JOINT ThumbLeft
              {
                OFFSET 3.713507 -0.335034 -3.783899
                CHANNELS 3 Zrotation Xrotation Yrotation
                End Site
                {
                  OFFSET 0 0 0
                }
              }
            }
          }
        }
      }
      JOINT ShoulderRight
      {
        OFFSET 11.060532 -1.298905 -11.364390
        CHANNELS 3 Zrotation Xrotation Yrotation
        JOINT ElbowRight
        {
          OFFSET 3.985328 -22.078430 -5.266418
          CHANNELS 3 Zrotation Xrotation Yrotation
          JOINT WristRight
          {
            OFFSET -9.368658 -24.867574 -5.168315
            CHANNELS 3 Zrotation Xrotation Yrotation
            JOINT HandRight
            {
              OFFSET -3.326367 -5.713892 -0.111639
              CHANNELS 3 Zrotation Xrotation Yrotation
              JOINT HandTipRight
              {
                OFFSET -2.247269 -7.449059 -0.693631
                CHANNELS 3 Zrotation Xrotation Yrotation
                End Site
                {
                  OFFSET 0 0 0
                }
              }
              JOINT ThumbRight
              {
                OFFSET -2.971802 0.675815 -2.282297
                CHANNELS 3 Zrotation Xrotation Yrotation
                End Site
                {
                  OFFSET 0 0 0
                }
              }
            }
          }
        }
      }
    }
  }
  JOINT HipLeft
  {
    OFFSET -7.057312 0.784427 0.216248
    CHANNELS 3 Zrotation Xrotation Yrotation
    JOINT KneeLeft
    {
      OFFSET -6.602758 -23.141942 -14.000620
      CHANNELS 3 Zrotation Xrotation Yrotation
      JOINT AnkleLeft
      {
        OFFSET 1.171281 -26.034382 -17.684566
        CHANNELS 3 Zrotation Xrotation Yrotation
        JOINT FootLeft
        {
          OFFSET -7.116202 6.833130 -13.434588
          CHANNELS 3 Zrotation Xrotation Yrotation
          End Site
          {
            OFFSET 0 0 0
          }
        }
      }
    }
  }
  JOINT HipRight
  {
    OFFSET 5.494688 1.926422 -6.674710
    CHANNELS 3 Zrotation Xrotation Yrotation
    JOINT KneeRight
    {
      OFFSET -0.780180 -25.266300 -9.183092
      CHANNELS 3 Zrotation Xrotation Yrotation
      JOINT AnkleRight
      {
        OFFSET -8.835062 -20.855825 -22.301316
        CHANNELS 3 Zrotation Xrotation Yrotation
        JOINT FootRight
        {
          OFFSET -5.557909 5.190353 -14.834669
          CHANNELS 3 Zrotation Xrotation Yrotation
          End Site
          {
            OFFSET 0 0 0
          }
        }
      }
    }
  }
}
MOTION
Frames: 14
Frame Time: 0.033333
86.151676 34.785476 327.509621 9.747948 -16.609281 58.030986 -0.235467 -1.081678 -56.446105 -0.477643 0.158902 0.260297 17.932483 7.184724 -5.598553 0.000000 0.000000 0.000000 -6.350988 7.601833 1.434274 -12.159060 -9.127582 4.492664 16.665592 18.979150 -10.979994 -4.970006 38.757525 -4.563942 0.000000 0.000000 0.000000 0.000000 0.000000 0.000000 -28.872145 26.999432 14.370373 12.954513 3.326058 -9.418379 13.163531 -1.330717 -1.372411 -37.864039 5.297095 1.016773 0.000000 0.000000 0.000000 0.000000 0.000000 0.000000 31.547819 63.518441 -64.839748 17.828488 26.702089 11.192426 130.306672 -63.222345 123.044642 0.000000 0.000000 0.000000 -30.552591 -15.792502 -57.925304 -132.055610 62.246281 120.372751 96.044570 -57.062208 90.557946 0.000000 0.000000 0.000000
85.676597 34.801589 326.698341 8.764662 -15.447834 59.324111 -0.111463 -0.660207 -57.989065 -0.430410 0.219551 0.216169 21.177335 4.684420 -5.316413 0.000000 0.000000 0.000000 -7.079812 8.730895 1.264257 -6.932220 -13.768413 1.803810 15.030951 19.701182 -10.237901 -14.951513 36.805893 2.966930 0.000000 0.000000 0.000000 0.000000 0.000000 0.000000 -27.036172 25.761118 13.393985 12.925906 2.912298 -9.339324 10.863056 0.955845 -3.139528 -39.617248 3.379422 0.958380 0.000000 0.000000 0.000000 0.000000 0.000000 0.000000 34.808336 61.155365 -68.545655 15.459680 24.895509 12.197609 125.981009 -65.017979 118.346018 0.000000 0.000000 0.000000 -33.374038 -17.707517 -60.871845 -142.415297 58.033527 128.941526 112.862857 -49.221558 111.683839 0.000000 0.000000 0.000000
85.290583 36.076059 326.494485 8.062153 -14.901513 60.551190 -0.139570 -0.355664 -59.352546 -0.502236 0.441490 0.177681 22.354767 3.395830 -4.985037 0.000000 0.000000 0.000000 -7.032902 8.782071 1.197926 -7.010618 -16.140606 2.276225 15.182700 19.378305 -10.545000 -17.536859 29.448090 7.128997 0.000000 0.000000 0.000000 0.000000 0.000000 0.000000 -25.611616 24.460308 12.653098 13.248885 3.168987 -9.258293 6.772341 3.529485 -5.111247 -36.493434 1.383166 1.220394 0.000000 0.000000 0.000000 0.000000 0.000000 0.000000 36.197511 59.627553 -70.198248 14.016087 23.510107 12.704960 126.782943 -65.660449 116.953236 0.000000 0.000000 0.000000 -33.156971 -17.930917 -63.077228 -141.216411 58.190052 126.897209 112.205615 -49.393093 111.142731 0.000000 0.000000 0.000000
84.972990 37.670910 326.600244 7.716262 -14.583344 61.582922 -0.219059 0.104701 -60.428466 -0.518728 0.621086 0.145545 23.466430 2.928718 -4.775526 0.000000 0.000000 0.000000 -5.879121 8.088722 1.056213 -13.381229 -16.422193 5.919861 17.926377 12.974462 -13.043016 -15.207971 21.191885 9.853018 0.000000 0.000000 0.000000 0.000000 0.000000 0.000000 -25.476706 24.765220 13.056406 13.989417 1.884435 -9.389045 3.116624 6.238126 -6.931134 -35.255771 -2.336468 1.311736 0.000000 0.000000 0.000000 0.000000 0.000000 0.000000 38.596916 56.849491 -73.044613 11.074997 22.580546 13.427163 121.920310 -65.080673 113.422203 0.000000 0.000000 0.000000 -31.160599 -16.894083 -64.210530 -133.031953 60.645735 118.939757 93.616633 -59.910093 85.155928 0.000000 0.000000 0.000000
85.192017 39.623627 326.635587 7.811921 -13.698724 60.128945 -0.092280 0.528476 -59.007090 -0.565090 0.414291 0.156717 22.589288 1.915025 -4.254399 0.000000 0.000000 0.000000 -8.234740 8.970189 1.179410 -23.917991 -17.518398 13.396216 23.650108 19.818433 -14.871302 -3.477483 4.743726 4.335527 0.000000 0.000000 0.000000 0.000000 0.000000 0.000000 -25.917120 24.813012 13.407435 15.064780 1.467308 -9.866325 0.420508 7.782437 -8.058140 -35.413910 -2.981529 1.174299 0.000000 0.000000 0.000000 0.000000 0.000000 0.000000 36.791547 56.910699 -71.600639 9.718417 24.550075 14.276839 113.650760 -54.067802 119.287881 0.000000 0.000000 0.000000 -25.753636 -18.080857 -64.463691 -110.610826 61.343373 95.394455 55.543441 -57.931068 44.139781 0.000000 0.000000 0.000000
84.743835 42.271001 327.622714 7.229178 -13.394097 58.054205 -0.144326 0.585863 -57.033615 -0.493686 0.489248 0.128912 20.408789 1.464016 -3.909426 0.000000 0.000000 0.000000 -8.539777 11.860855 0.988739 -43.156753 -25.050643 21.376188 6.133381 18.276199 -3.502898 34.918512 0.465701 -8.480886 0.000000 0.000000 0.000000 0.000000 0.000000 0.000000 -26.187987 25.756887 14.148720 16.341118 1.421755 -10.605356 -1.311331 8.704132 -8.948949 -36.004416 -3.047278 0.893539 0.000000 0.000000 0.000000 0.000000 0.000000 0.000000 37.977170 56.307592 -71.859438 8.219994 22.865266 14.641251 95.487421 -42.233702 122.184576 0.000000 0.000000 0.000000 -23.401474 -19.387484 -63.194235 -90.247854 63.971198 75.240905 40.376207 -50.760055 31.234674 0.000000 0.000000 0.000000
83.774568 44.864722 329.201933 5.993286 -13.543626 54.570859 0.025046 0.786602 -53.737184 -0.227842 0.512885 0.070783 17.676877 2.113242 -3.604441 0.000000 0.000000 0.000000 -7.752405 17.196174 0.547288 -65.807198 -32.207486 24.894879 -4.696014 11.433261 -3.632198 66.134401 -3.390811 -17.641923 0.000000 0.000000 0.000000 0.000000 0.000000 0.000000 -25.290774 27.306231 14.649204 16.673004 1.410394 -11.329544 -2.992119 9.870217 -10.075422 -35.571126 -4.112204 0.704322 0.000000 0.000000 0.000000 0.000000 0.000000 0.000000 41.290703 55.857515 -72.793898 6.529863 17.609531 14.702233 75.533895 -33.809986 121.610099 0.000000 0.000000 0.000000 -16.771190 -20.204447 -60.541400 -55.271386 58.083238 41.104327 23.704121 -34.443093 18.547038 0.000000 0.000000 0.000000
82.991590 47.887430 331.509894 4.988728 -14.096389 50.278294 -0.069319 0.501969 -49.580504 0.012646 0.315797 0.026233 13.118976 4.031875 -3.408946 0.000000 0.000000 0.000000 -9.051705 23.337045 0.747096 -76.348245 -30.418493 26.844429 -6.585879 8.053780 -9.181758 75.573134 -10.316513 -18.479644 0.000000 0.000000 0.000000 0.000000 0.000000 0.000000 -25.179564 29.269236 15.554489 16.511075 3.898474 -12.607805 -4.529691 7.923274 -10.109955 -33.315594 -3.496738 1.272932 0.000000 0.000000 0.000000 0.000000 0.000000 0.000000 49.197379 55.762882 -77.523459 4.526996 4.704464 14.364590 65.357990 -27.424210 114.779860 0.000000 0.000000 0.000000 -8.072968 -18.175874 -55.978591 -28.330187 38.594438 17.709160 6.591471 -2.921069 8.986168 0.000000 0.000000 0.000000
82.409525 51.059772 333.947602 4.101941 -14.784788 46.713038 -0.064309 0.679171 -46.124860 -0.029412 0.631191 -0.019182 8.926947 6.147525 -2.757868 0.000000 0.000000 0.000000 -10.455789 27.953114 1.244379 -83.759388 -28.288077 28.451970 -7.162941 6.387565 -14.059882 83.060732 -14.879635 -17.892322 0.000000 0.000000 0.000000 0.000000 0.000000 0.000000 -23.960314 31.181109 15.991011 15.922674 6.423736 -14.074391 -4.591628 6.548498 -10.555694 -31.010865 -3.516930 1.780137 0.000000 0.000000 0.000000 0.000000 0.000000 0.000000 55.682840 56.226922 -81.378785 12.322602 -22.496137 12.998573 56.996432 -16.006056 90.539154 0.000000 0.000000 0.000000 -1.258561 -15.104508 -52.184600 -13.564113 14.996900 9.153302 -5.432609 25.455677 11.097873 0.000000 0.000000 0.000000
81.223671 54.394803 335.534562 2.124636 -14.311141 42.507254 0.061405 0.889670 -42.244023 0.203448 0.552081 -0.092970 7.700650 6.328905 -2.273608 0.000000 0.000000 0.000000 -11.830422 31.742721 1.971760 -84.214122 -22.284409 31.339293 -6.920951 9.958150 -9.359948 86.638625 -30.472791 -9.398421 0.000000 0.000000 0.000000 0.000000 0.000000 0.000000 -21.855053 32.396174 16.036811 15.744846 8.710218 -15.586636 -5.400371 5.672302 -11.394959 -28.338193 -3.873781 2.520491 0.000000 0.000000 0.000000 0.000000 0.000000 0.000000 59.975361 56.632230 -82.784114 94.921351 -74.492532 78.682152 46.222640 18.989061 36.085761 0.000000 0.000000 0.000000 4.032806 -14.655273 -48.500863 -5.220911 -3.661140 7.797649 -15.539512 43.179908 18.447406 0.000000 0.000000 0.000000
80.719715 57.333569 337.289487 0.534207 -13.639313 39.380850 0.043115 0.596187 -39.380221 0.060400 0.574746 -0.130069 7.955655 6.797668 -1.988692 0.000000 0.000000 0.000000 -12.673761 35.040154 2.656390 -78.985770 -10.894710 36.773944 -8.123323 7.052976 -12.518443 82.714218 -37.891348 -3.828154 0.000000 0.000000 0.000000 0.000000 0.000000 0.000000 -19.711091 34.590187 16.235857 16.788097 12.001773 -18.035199 -8.254465 -0.412212 -10.897722 -22.835861 -5.089826 4.286596 0.000000 0.000000 0.000000 0.000000 0.000000 0.000000 66.115240 57.202168 -86.524947 164.476116 -53.991825 143.038538 38.769405 33.885867 7.461170 0.000000 0.000000 0.000000 7.462813 -12.740511 -45.218911 1.568541 -16.814766 8.058960 -17.908502 47.532673 22.552332 0.000000 0.000000 0.000000
81.033021 59.826679 338.860272 -0.287007 -12.763212 38.985997 0.068526 0.295940 -39.119554 -0.095545 0.687579 -0.135649 8.603897 7.746067 -1.655214 0.000000 0.000000 0.000000 -13.135899 37.024203 2.958038 -77.248601 -0.915686 42.202720 -9.868621 6.414945 -13.427380 89.457065 -49.381705 5.322585 0.000000 0.000000 0.000000 0.000000 0.000000 0.000000 -16.942943 36.962784 15.623035 12.150137 14.101419 -19.478169 -4.368099 1.105751 -12.017966 -17.751943 -4.939788 6.450065 0.000000 0.000000 0.000000 0.000000 0.000000 0.000000 75.406743 59.411062 -94.557572 172.337986 -43.207950 147.829281 27.984037 36.046764 -1.006602 0.000000 0.000000 0.000000 7.186275 -9.766240 -43.689229 7.941472 -24.851782 7.309741 -4.088672 35.123999 20.808367 0.000000 0.000000 0.000000
82.269697 62.388428 340.779931 -0.060662 -12.366877 38.114874 -0.090153 0.090650 -38.215467 -0.329262 0.716065 -0.116582 8.157993 9.713846 -1.262046 0.000000 0.000000 0.000000 -14.852456 40.145110 3.703858 -75.587723 10.119801 47.787131 -15.024141 0.084331 -22.367690 86.258212 -48.874916 6.031757 0.000000 0.000000 0.000000 0.000000 0.000000 0.000000 -13.140584 40.851766 14.194349 5.858100 14.330828 -20.766753 -3.645141 2.492956 -13.559929 -27.952565 11.061205 4.892659 0.000000 0.000000 0.000000 0.000000 0.000000 0.000000 96.629032 67.700357 -115.397225 -178.313960 -34.208964 146.314815 22.384873 38.287508 -2.035438 0.000000 0.000000 0.000000 6.832762 -4.168981 -41.381260 12.489104 -31.047726 7.496381 2.344686 23.775763 16.005162 0.000000 0.000000 0.000000
84.234179 64.195637 341.791435 1.259109 -11.158966 37.918433 -0.057972 0.018301 -37.840785 -0.599558 0.834610 -0.049216 6.910462 11.261853 -0.649312 0.000000 0.000000 0.000000 -17.437470 42.380010 4.144449 -76.367373 18.745959 53.081699 -33.594751 3.785069 -34.941711 87.480169 -34.592797 3.808922 0.000000 0.000000 0.000000 0.000000 0.000000 0.000000 -9.721103 43.836170 12.032208 -0.091412 14.262769 -22.488958 -4.820947 3.795504 -15.582699 -22.403113 26.664361 10.591628 0.000000 0.000000 0.000000 0.000000 0.000000 0.000000 111.188109 73.739055 -131.884460 -173.467401 -35.522467 144.026352 22.113218 34.705348 -0.991859 0.000000 0.000000 0.000000 4.200739 0.444050 -39.489408 13.745417 -31.652974 6.411110 3.479011 14.207030 10.631304 0.000000 0.000000 0.000000
